<svg width="374" height="568" viewBox="0 0 374 568" fill="none" xmlns="http://www.w3.org/2000/svg">
<path d="M230.684 339.919L230.48 338.187V334.724L231.092 332.586L232.925 332.076L233.332 330.548L232.62 329.326L229.869 327.696L229.054 326.474V325.047L230.888 323.723L232.822 322.195L233.128 321.075V318.732C233.128 318.732 233.74 316.491 233.944 316.186C234.146 315.88 234.86 314.862 234.86 314.862V313.13C234.86 312.824 234.045 310.991 234.045 310.991L230.989 308.954L228.952 307.323L225.184 304.778L223.044 302.638L220.701 300.804L219.581 298.563L219.276 296.934V294.999L220.6 293.063L222.534 292.656L224.47 291.331L226.914 290.11L227.832 288.378V285.831L227.221 283.998H225.081L222.229 283.692L219.377 282.47L218.154 280.738L217.034 278.599L215.608 276.46L213.774 275.339L211.33 274.83L209.497 273.914L206.645 272.08V270.247V268.616L205.932 267.395H204.608L203.894 268.311L201.552 270.043L199.514 269.94L197.986 268.922L196.458 266.478L195.848 263.931L194.524 260.875L193.606 258.126V256.394L193.097 252.727V250.995L191.874 249.366C191.874 249.366 189.532 248.754 189.328 248.448C189.125 248.143 187.801 246.92 187.801 246.92L187.189 244.679L185.661 242.031L184.133 239.688L182.605 238.67L180.058 238.059L177.513 235.919L174.253 232.252L172.216 229.4L168.345 225.326L164.576 221.76L162.336 218.502L160.196 215.852L159.585 213.307L158.77 210.047L156.937 206.787C156.937 206.787 155.306 205.158 155.001 204.954C154.696 204.75 153.372 203.222 153.372 203.222H151.538L150.214 205.056L148.074 204.648L147.973 202.51L147.464 200.167L145.325 198.842L143.288 197.008C143.288 197.008 141.964 195.074 141.657 194.971C141.352 194.87 140.638 192.323 140.638 192.323L141.046 190.591L142.473 187.434L143.084 185.499L142.37 183.462L138.398 182.138L134.833 181.016L131.37 179.998L127.805 179.082L124.036 177.35L121.285 174.904L117.109 170.932L112.424 168.488L106.72 165.228L99.7929 162.58L96.6356 160.95L95.9222 159.728L96.7369 157.691L98.6729 156.57L100.608 155.144L102.95 153.514L103.256 152.088L103.46 145.467L105.497 144.347L107.433 144.448L109.978 144.958C109.978 144.958 111.405 143.736 111.609 143.43C111.813 143.124 113.646 143.43 113.646 143.43L115.377 144.448L117.924 145.467L120.369 145.57L121.388 145.467L122.916 144.958L123.221 144.143L124.545 141.8L126.582 141.087L128.212 140.374L129.638 138.744L131.268 137.216L132.796 134.772L133.406 132.836L133.916 130.595L135.342 128.252L134.934 126.724L132.796 124.891C132.796 124.891 129.434 124.484 129.026 124.382C128.62 124.28 126.174 124.179 125.462 123.67C124.749 123.16 124.341 122.547 124.341 122.547L122.304 121.632L120.98 120.818C120.98 120.818 120.266 119.492 120.266 119.187C120.266 118.882 122.304 118.271 122.304 118.271L123.322 117.354L122.916 116.131H120.674L118.942 116.438H116.294L114.97 115.419L116.498 112.77L118.23 111.751L120.573 110.223L120.776 108.187L120.47 105.742L118.738 104.112L115.989 101.871L112.525 99.6298C112.525 99.6298 110.59 98.0004 110.386 97.6951C110.182 97.3898 107.636 95.5551 107.636 95.5551L106.312 94.9445C106.312 94.9445 102.849 93.8245 102.544 93.8245C102.237 93.8245 99.5889 94.4351 99.2836 94.6391C98.9782 94.8431 96.9409 96.6765 96.9409 96.6765L94.8022 98.7138L93.2742 101.362L91.6436 103.603C91.6436 103.603 90.4222 105.334 90.0142 105.64C89.6062 105.946 88.2822 105.742 87.8755 105.742C87.4676 105.742 85.2262 104.927 84.9209 104.723C84.6156 104.519 81.4582 102.991 81.4582 102.991L77.8929 101.667L74.5316 100.648L67.1969 98.9178C67.1969 98.9178 65.5676 97.5925 65.2622 97.2871C64.9569 96.9818 64.8542 95.4538 64.8542 95.4538L63.9382 93.5191L61.6969 91.6844L59.3542 88.0178L58.9462 85.6751L58.1316 84.3511L55.4836 84.2498L55.1782 82.3138L55.8916 80.0724L58.4369 78.8511L58.6409 77.0178L59.4555 73.7578L61.2889 72.2298L62.3076 70.2938L62.2062 65.7111L58.3356 65.5071L55.7889 63.6738L54.1595 66.0165C54.1595 66.0165 51.9182 66.5258 51.6129 66.5258C51.3076 66.5258 49.6769 65.0991 49.6769 65.0991L48.4555 61.7378L48.3529 59.1911L47.7422 57.2565L46.1129 55.5244L43.5662 52.4684L39.0836 48.8018L35.2529 44.9311L31.5462 40.3471L29.0049 36.7125L31.6476 36.4764L35.2529 33.9965L37.8329 30.3298L40.6849 25.1685L42.5862 23.4031L44.4875 23.8098L48.8342 24.8964L53.9955 28.5645L57.9342 32.3671L59.8356 35.7618L62.8236 36.7125L66.2182 34.5391L67.5769 31.5511L70.2929 28.6992L72.0582 25.3045C72.0582 25.3045 72.7369 23.4031 73.1449 23.2672C73.5516 23.1311 76.9476 22.4525 76.9476 22.4525L79.3916 24.7604L80.0716 28.6992C80.0716 28.6992 81.7009 30.6017 82.1089 30.6017C82.5156 30.6017 83.7382 29.1071 83.7382 29.1071V24.2178L85.2329 23.9458L88.7635 28.4285L91.8876 31.2805L94.1956 33.5884L97.4556 35.7618L100.444 33.7245L101.122 29.2431V25.3045L104.789 21.6378L106.69 21.3658L109.136 22.1805L111.445 24.3538L113.21 25.3045L116.605 23.9458L118.778 21.3658L120.68 20.6871H123.804C124.618 20.6871 127.47 19.8724 127.47 19.8724L129.236 16.7485C129.236 16.7485 128.829 13.7604 129.236 13.0804C129.644 12.4018 131.137 9.00714 131.137 9.00714L133.174 6.28979L136.977 4.25378L140.78 3.03113L143.904 1.53644L146.485 0.857788L149.88 1.67249L153.14 4.79645L160.473 10.5004L164.548 13.8964C164.548 13.8964 167.4 17.1552 167.808 17.1552C168.214 17.1552 171.338 15.3898 171.338 15.3898L174.054 14.5751L176.228 14.8471L180.166 16.6125L183.29 18.9205L186.821 18.1058L191.304 17.0191L195.106 17.5631L197.55 18.3778L200.81 20.4151L201.489 23.4031V26.5272C201.489 26.9338 199.588 28.8351 199.588 28.8351C199.588 28.8351 198.501 30.0578 197.822 30.3298C197.144 30.6018 194.97 30.7365 194.97 30.7365L193.34 32.7738L193.205 36.8484L194.02 39.9725C194.02 39.9725 196.872 42.0098 197.144 42.5524C197.414 43.0964 198.094 45.1338 198.094 45.1338L198.909 49.8871L200.538 52.4671L206.65 55.3192L211.404 56.9484L212.762 60.8871L216.293 63.0605L221.725 64.9618L224.713 68.4938L227.158 67.9498L233.405 69.4445L236.801 68.6284L242.097 67.6778L244.537 68.5631V70.6005L244.028 72.2298L241.582 73.8591L239.138 75.2858L236.693 76.9151L235.165 78.9524C235.165 78.9524 235.064 79.2578 234.656 79.5631C234.249 79.8698 232.721 80.2765 232.721 80.2765L231.193 79.6658H228.646L227.73 80.5818L225.896 79.8698L224.877 80.4805L224.776 82.8231L224.877 87.1017L224.98 91.3791L223.86 92.2964L221.414 91.5831L218.766 91.4818L218.257 94.1298L216.117 94.8431L213.265 94.2311L211.126 94.7404L211.84 96.2684L212.349 97.5925L215.201 99.8338L214.793 101.056H213.469L213.368 102.38H210.312L210.108 101.26L208.376 98.4085L207.256 96.7778L206.542 97.3898L206.34 98.6111L203.996 98.3058L203.793 99.4271L202.672 100.547L202.468 102.89L201.45 104.112L199.106 105.436L197.58 107.168L195.644 108.288L194.93 109.511L195.338 111.751L195.644 113.584L195.44 116.946L195.033 119.187L193.505 121.734L192.181 123.567C192.181 123.567 191.365 124.076 190.958 124.179C190.55 124.28 188.004 124.994 188.004 124.994L186.069 126.623L184.541 128.559L183.421 129.883L181.79 131.411L180.976 132.123L179.142 132.226L176.697 132.327H175.272L174.049 133.244L172.929 134.16L172.012 135.587L171.706 137.522L171.197 140.68L170.993 141.699L169.772 142.31L168.244 144.347L167.428 146.384L167.225 148.624L167.122 151.274L167.021 153.616L166.716 154.736L166.206 155.755L166.613 157.182L167.326 158.302L166.206 159.626L164.984 160.747L164.169 162.783V164.923L163.557 166.348C163.557 166.348 162.437 167.266 162.132 167.367C161.826 167.47 161.214 167.672 161.113 168.08C161.012 168.488 160.298 170.423 160.298 170.423L160.094 172.766L160.909 174.803L163.252 176.636L164.78 178.47C164.78 178.47 166.104 180.507 166.41 181.016C166.716 181.526 167.836 183.563 167.836 183.563L168.549 185.804L169.465 187.842L170.484 189.267L170.993 190.694L170.789 192.018L170.382 193.647L171.298 194.055L172.012 193.036L173.234 192.527L173.948 193.342L174.558 194.666L175.373 195.888C175.373 195.888 176.29 197.314 176.697 197.518C177.105 197.722 178.938 198.944 178.938 198.944L180.874 199.86L182.708 201.491L184.133 202.306L186.578 204.343L187.189 204.852L190.346 205.362L190.754 208.315L192.181 209.028L192.69 210.148V211.472C192.69 211.779 192.078 212.695 192.078 212.695L191.365 213.816L191.569 216.362L191.874 217.992L192.893 220.335L193.708 221.964L195.644 225.53L198.394 229.91L203.385 234.595L207.154 238.466L210.516 241.623L213.978 243.967L215.608 244.883L215.71 248.55L218.97 252.828L223.248 256.394L227.322 259.347L230.582 261.894L235.064 265.459L237.916 268.006L239.342 269.431L239.852 270.654L240.258 273.099L240.972 274.219L243.11 275.442L244.537 275.543L245.25 274.219V273.2L246.37 273.302L247.286 274.423H248.509V272.996H249.732L250.75 275.136V276.766L251.769 277.784L255.028 278.09V279.007L254.112 279.923L253.704 282.164L254.316 283.59L255.741 283.692V282.164L257.065 280.228L258.593 280.636L260.121 281.247V282.368L258.084 282.47L257.372 283.284L258.39 284.914L259.51 286.442C259.51 286.442 259.816 287.664 260.121 287.97C260.426 288.276 262.057 290.312 262.057 290.312L263.585 292.656V294.183L264.297 295.1L265.418 297.239L266.437 299.276C266.437 299.276 268.168 301.619 268.372 301.926C268.576 302.231 269.696 303.759 269.696 303.759C269.696 303.759 270.714 305.184 270.714 305.49V307.12L272.141 307.63L273.16 306.815L272.548 305.796H273.16L274.178 306.815L274.993 307.731L275.91 308.546L277.946 309.36L279.474 309.259L281.105 309.972L282.53 311.703V313.028L281.41 313.843L281.309 314.759L282.53 315.167V316.083L281.92 316.796L281.716 320.566L282.53 322.704L283.345 325.352V327.594L284.772 330.344L286.096 332.279L287.318 334.622L287.929 336.456V339.104L288.438 341.447V343.79L289.661 346.336L290.577 348.578C290.577 348.578 291.698 350.308 291.698 350.615C291.698 350.92 292.309 353.263 292.309 353.263V354.995L291.393 355.911V357.439L292.818 359.272L294.957 364.366L296.078 366.81V369.051L296.588 371.496H294.856L294.55 367.014H293.736L293.226 369.662L293.837 371.496L294.856 372.412L294.652 373.33L293.633 374.654V376.079C293.633 376.079 294.449 378.015 294.754 378.32C295.06 378.626 295.976 380.663 295.976 380.663L296.588 381.58V384.024H295.06V382.292L294.245 382.191L293.633 383.414V385.146L295.466 386.876L295.773 390.442L295.874 395.535L298.217 398.692L299.541 400.934L301.069 402.971L301.782 404.499V406.23L299.032 406.943L298.726 409.49L299.846 410.61L301.782 412.036V413.36L300.458 416.416L299.134 416.926H297.504L296.994 412.75L297.504 409.286H296.689L295.365 410.304L294.449 412.138L294.55 413.666L294.449 415.194L294.142 416.926L294.856 418.351L295.67 419.676L296.485 421.611L297.097 423.648C297.097 423.648 296.689 424.158 296.384 424.158H294.55L292.921 421.916L292.208 420.695L291.494 421.102V422.528L292.717 423.648L292.921 425.176L293.124 427.62L292.614 433.528L292.412 435.566L293.328 437.298L294.957 439.436L294.652 440.558H293.124L292.412 438.112L292.208 439.436L292.004 442.086L292.513 444.122L293.226 445.039L293.022 447.687L292.717 449.318L290.985 453.391L290.374 454.308H287.828L286.706 453.086L285.994 454.308L286.197 456.651L285.382 457.975L285.586 459.096L285.485 461.336L284.568 464.392H283.652H282.225H281.105H279.068L277.437 466.022L276.622 467.347L276.113 469.078L275.808 469.892H273.465H270.205L268.27 471.42L267.252 472.134L266.334 473.458V474.579L264.094 475.088L262.77 475.598L261.853 476.208L259.714 478.347L256.046 479.162H254.213C253.806 479.162 251.666 480.487 251.666 480.487L249.528 482.218L248.305 483.236C248.305 483.236 246.676 484.663 246.37 484.968C246.065 485.274 242.906 486.598 242.906 486.598C242.906 486.598 240.666 487.107 240.258 487.311C239.852 487.515 237.508 489.144 237.508 489.144L235.064 490.468C235.064 490.468 233.841 491.794 233.536 492.099C233.23 492.404 231.092 494.034 231.092 494.034L229.156 495.358L227.221 496.682C227.221 496.682 226.1 497.498 225.693 497.599C225.285 497.7 223.656 498.719 223.044 498.923C222.433 499.127 220.396 499.84 219.988 499.84H217.748H216.22L213.877 498.516L212.246 496.988L211.737 495.256L210.413 495.052L208.376 495.664L207.664 496.682L206.542 497.803L205.117 498.719L203.69 498.923L202.162 498.822L200.228 499.127L198.7 499.84L197.477 500.554L197.07 501.674L196.662 502.692L197.376 504.016L198.292 505.136C198.292 505.136 198.7 505.748 199.005 505.85C199.31 505.951 200.125 506.46 200.432 506.563C200.737 506.664 202.265 506.563 202.265 506.563L203.284 507.887L203.589 508.6V509.823L202.162 510.638L200.838 511.554L200.024 512.776L198.19 513.999L194.32 514.508L192.384 515.119L190.55 516.138L189.43 516.647L189.022 518.175L190.653 519.398L191.977 520.008C191.977 520.008 193.301 521.128 193.505 521.435C193.708 521.74 194.829 523.37 194.829 523.37L195.644 525.611L195.44 527.139L194.217 528.768C194.217 528.768 191.874 529.787 191.569 529.888C191.264 529.991 190.55 529.583 189.634 529.888C188.717 530.195 187.597 529.888 187.597 529.888L184.236 530.5H183.013L181.893 531.111L181.077 533.047L180.67 534.778L180.161 536.815L175.17 539.77C175.17 539.77 171.605 541.399 171.298 541.399C170.993 541.399 166.716 543.028 166.716 543.028L164.169 543.742C164.169 543.742 162.132 543.232 161.724 543.742C161.317 544.251 159.177 545.066 159.177 545.066L157.446 545.678L156.224 546.696L153.881 549.039L152.149 551.687L151.13 553.623L150.316 555.863L148.788 558.206L147.668 559.428L145.936 560.855L144.713 561.364L143.084 562.076L141.352 563.4L139.314 564.928C139.314 564.928 138.194 565.438 138.093 565.642C137.99 565.846 135.953 566.864 135.953 566.864C135.953 566.864 134.222 567.475 133.916 567.475H130.554L128.925 566.763L127.092 566.254L126.989 565.235L127.856 564.216L129.536 563.095L130.453 561.262L132.185 560.142L133.509 559.428L133.61 558.511L129.333 558.206L129.434 555.15C129.434 555.15 129.842 554.234 130.045 553.826C130.249 553.419 130.453 549.344 130.453 549.344L131.166 547.816L130.861 537.63L131.878 536.408L131.981 524.694L133.406 521.842L133.916 520.416L136.258 519.194L137.481 517.666L138.805 517.156L140.232 517.055L141.964 515.527L141.556 513.286L140.232 511.554C140.232 511.554 139.009 510.84 138.602 510.739C138.194 510.638 136.768 509.924 136.157 509.823C135.546 509.72 133.204 509.72 133.204 509.72L131.878 507.786L130.657 506.46L128.721 506.359H126.481L125.054 506.868L124.341 507.988C124.341 507.988 123.322 508.192 123.017 508.091C122.712 507.988 121.592 506.97 121.592 506.664C121.592 506.359 121.998 504.627 121.998 504.627L120.674 502.692L118.841 500.35L117.924 499.331L122.406 493.423C122.406 493.423 124.036 492.914 124.341 492.914C124.646 492.914 127.856 493.627 127.856 493.627L130.962 493.83L133.204 491.996L136.056 489.348L141.964 483.746L143.593 480.69L145.325 480.18C145.325 480.18 147.362 479.774 147.668 479.875C147.973 479.978 150.01 480.792 150.316 480.792C150.621 480.792 153.881 479.468 153.881 479.468L156.02 478.144L157.853 476.819L159.993 476.718L162.437 476.616L165.697 477.227L167.122 477.635L167.836 478.551L168.956 480.283L170.178 481.302H173.336L174.661 481.708L174.966 482.931L176.596 483.339C176.596 483.339 178.734 483.848 179.142 483.848C179.55 483.848 180.262 483.135 180.568 482.83C180.874 482.524 181.077 480.894 180.874 480.384C180.67 479.875 179.244 477.532 179.244 477.532C179.244 477.532 178.124 475.8 177.92 475.088C177.716 474.375 175.882 472.439 175.882 472.439L174.253 470.199C174.253 470.199 172.317 467.856 171.91 467.244C171.502 466.634 169.465 465.004 169.465 464.596C169.465 464.188 169.16 461.642 169.16 461.642L168.549 459.503C168.549 459.503 166.716 457.059 166.716 456.55C166.716 456.04 166.817 454.41 166.918 454.104C167.021 453.799 167.632 452.679 167.937 452.372C168.244 452.067 170.077 450.743 170.077 450.743L174.966 448.706L177.309 448.4L180.365 448.91L182.3 450.234C182.3 450.234 184.846 450.743 185.152 450.743H188.616L188.717 440.048L194.93 439.742L200.024 439.539C200.024 439.539 202.57 437.603 202.774 437.196C202.977 436.788 204.404 435.566 204.709 435.566C205.014 435.566 208.173 435.159 208.173 435.159C208.173 435.159 210.21 434.65 210.821 434.14C211.432 433.631 213.978 432.103 213.978 432.103L216.626 430.066L219.276 427.723C219.276 427.723 222.332 427.519 222.637 427.519C222.942 427.519 225.794 427.214 225.794 427.214C225.794 427.214 228.137 426.092 228.442 425.991C228.748 425.89 230.989 424.056 230.989 424.056C230.989 424.056 232.212 421.916 232.313 421.51C232.416 421.102 232.212 409.694 232.212 409.694L231.092 407.046C231.092 407.046 230.174 405.619 230.174 405.11C230.174 404.6 230.073 401.544 230.073 401.544V398.387C230.073 398.387 230.684 396.146 230.888 395.739C231.092 395.331 232.212 392.988 232.212 392.988C232.212 392.988 233.026 391.46 233.23 390.646C233.434 389.831 233.23 388.608 233.434 387.895C233.637 387.182 233.74 385.96 233.74 385.348V383.006C233.74 383.006 233.434 380.663 233.332 380.154C233.23 379.644 232.416 378.422 232.313 377.506C232.212 376.588 231.702 375.774 231.397 374.858C231.092 373.94 230.174 372.616 229.665 371.903C229.156 371.19 227.424 369.56 227.424 369.56L227.017 365.69L225.489 363.246C225.489 363.246 224.266 362.124 224.266 361.514C224.266 360.902 224.572 356.93 224.572 356.522C224.572 356.115 225.285 353.568 225.285 353.568L225.489 351.531L227.118 349.087L229.257 346.846L229.97 344.808L230.582 341.855L230.684 339.919Z" fill="#C7C8C8"/>
<path d="M0.393555 186.839L96.1322 362.772L191.948 186.839H144.624L96.1322 276.626L47.8776 186.839H0.393555Z" fill="white"/>
<path d="M111.396 363.656L179.761 238.186H233.725L165.348 363.656H111.396Z" fill="white"/>
<path d="M258.049 308.831L277.522 272.831L296.772 308.831H258.049ZM277.452 186.84L181.476 363.655H228.397L239.877 342.429H314.738L326.088 363.655H373.374L277.452 186.84Z" fill="white"/>
<path d="M183.963 230.475L207.739 186.84H261.696L237.916 230.475H183.963Z" fill="white"/>
</svg>
