<svg width="470" height="568" viewBox="0 0 470 568" fill="none" xmlns="http://www.w3.org/2000/svg">
<mask id="mask0_2339_906" style="mask-type:luminance" maskUnits="userSpaceOnUse" x="0" y="51" width="470" height="470">
<path d="M0.142578 51.3678H469.609V520.834H0.142578V51.3678Z" fill="white"/>
</mask>
<g mask="url(#mask0_2339_906)">
<g opacity="0.539993">
<path d="M438.284 520.835H31.4669C14.1669 520.835 0.141602 506.811 0.141602 489.511V82.6923C0.141602 65.3923 14.1669 51.3683 31.4669 51.3683H438.284C455.584 51.3683 469.608 65.3923 469.608 82.6923V489.511C469.608 506.811 455.584 520.835 438.284 520.835Z" fill="#1D1DDD"/>
</g>
</g>
<path d="M277.684 339.919L277.48 338.187V334.724L278.092 332.586L279.925 332.076L280.332 330.548L279.62 329.326L276.869 327.696L276.054 326.474V325.047L277.888 323.723L279.822 322.195L280.128 321.075V318.732C280.128 318.732 280.74 316.491 280.944 316.186C281.146 315.88 281.86 314.862 281.86 314.862V313.13C281.86 312.824 281.045 310.991 281.045 310.991L277.989 308.954L275.952 307.323L272.184 304.778L270.044 302.638L267.701 300.804L266.581 298.563L266.276 296.934V294.999L267.6 293.063L269.534 292.656L271.47 291.331L273.914 290.11L274.832 288.378V285.831L274.221 283.998H272.081L269.229 283.692L266.377 282.47L265.154 280.738L264.034 278.599L262.608 276.46L260.774 275.339L258.33 274.83L256.497 273.914L253.645 272.08V270.247V268.616L252.932 267.395H251.608L250.894 268.311L248.552 270.043L246.514 269.94L244.986 268.922L243.458 266.478L242.848 263.931L241.524 260.875L240.606 258.126V256.394L240.097 252.727V250.995L238.874 249.366C238.874 249.366 236.532 248.754 236.328 248.448C236.125 248.143 234.801 246.92 234.801 246.92L234.189 244.679L232.661 242.031L231.133 239.688L229.605 238.67L227.058 238.059L224.513 235.919L221.253 232.252L219.216 229.4L215.345 225.326L211.576 221.76L209.336 218.502L207.196 215.852L206.585 213.307L205.77 210.047L203.937 206.787C203.937 206.787 202.306 205.158 202.001 204.954C201.696 204.75 200.372 203.222 200.372 203.222H198.538L197.214 205.056L195.074 204.648L194.973 202.51L194.464 200.167L192.325 198.842L190.288 197.008C190.288 197.008 188.964 195.074 188.657 194.971C188.352 194.87 187.638 192.323 187.638 192.323L188.046 190.591L189.473 187.434L190.084 185.499L189.37 183.462L185.398 182.138L181.833 181.016L178.37 179.998L174.805 179.082L171.036 177.35L168.285 174.904L164.109 170.932L159.424 168.488L153.72 165.228L146.793 162.58L143.636 160.95L142.922 159.728L143.737 157.691L145.673 156.57L147.608 155.144L149.95 153.514L150.256 152.088L150.46 145.467L152.497 144.347L154.433 144.448L156.978 144.958C156.978 144.958 158.405 143.736 158.609 143.43C158.813 143.124 160.646 143.43 160.646 143.43L162.377 144.448L164.924 145.467L167.369 145.57L168.388 145.467L169.916 144.958L170.221 144.143L171.545 141.8L173.582 141.087L175.212 140.374L176.638 138.744L178.268 137.216L179.796 134.772L180.406 132.836L180.916 130.595L182.342 128.252L181.934 126.724L179.796 124.891C179.796 124.891 176.434 124.484 176.026 124.382C175.62 124.28 173.174 124.179 172.462 123.67C171.749 123.16 171.341 122.547 171.341 122.547L169.304 121.632L167.98 120.818C167.98 120.818 167.266 119.492 167.266 119.187C167.266 118.882 169.304 118.271 169.304 118.271L170.322 117.354L169.916 116.131H167.674L165.942 116.438H163.294L161.97 115.419L163.498 112.77L165.23 111.751L167.573 110.223L167.776 108.187L167.47 105.742L165.738 104.112L162.989 101.871L159.525 99.6298C159.525 99.6298 157.59 98.0004 157.386 97.6951C157.182 97.3898 154.636 95.5551 154.636 95.5551L153.312 94.9445C153.312 94.9445 149.849 93.8245 149.544 93.8245C149.237 93.8245 146.589 94.4351 146.284 94.6391C145.978 94.8431 143.941 96.6765 143.941 96.6765L141.802 98.7138L140.274 101.362L138.644 103.603C138.644 103.603 137.422 105.334 137.014 105.64C136.606 105.946 135.282 105.742 134.876 105.742C134.468 105.742 132.226 104.927 131.921 104.723C131.616 104.519 128.458 102.991 128.458 102.991L124.893 101.667L121.532 100.648L114.197 98.9178C114.197 98.9178 112.568 97.5925 112.262 97.2871C111.957 96.9818 111.854 95.4538 111.854 95.4538L110.938 93.5191L108.697 91.6844L106.354 88.0178L105.946 85.6751L105.132 84.3511L102.484 84.2498L102.178 82.3138L102.892 80.0724L105.437 78.8511L105.641 77.0178L106.456 73.7578L108.289 72.2298L109.308 70.2938L109.206 65.7111L105.336 65.5071L102.789 63.6738L101.16 66.0165C101.16 66.0165 98.9182 66.5258 98.6129 66.5258C98.3076 66.5258 96.6769 65.0991 96.6769 65.0991L95.4555 61.7378L95.3529 59.1911L94.7422 57.2565L93.1129 55.5244L90.5662 52.4684L86.0836 48.8018L82.2529 44.9311L78.5462 40.3471L76.0049 36.7125L78.6476 36.4764L82.2529 33.9965L84.8329 30.3298L87.6849 25.1685L89.5862 23.4031L91.4875 23.8098L95.8342 24.8964L100.996 28.5645L104.934 32.3671L106.836 35.7618L109.824 36.7125L113.218 34.5391L114.577 31.5511L117.293 28.6992L119.058 25.3045C119.058 25.3045 119.737 23.4031 120.145 23.2672C120.552 23.1311 123.948 22.4525 123.948 22.4525L126.392 24.7604L127.072 28.6992C127.072 28.6992 128.701 30.6017 129.109 30.6017C129.516 30.6017 130.738 29.1071 130.738 29.1071V24.2178L132.233 23.9458L135.764 28.4285L138.888 31.2805L141.196 33.5884L144.456 35.7618L147.444 33.7245L148.122 29.2431V25.3045L151.789 21.6378L153.69 21.3658L156.136 22.1805L158.445 24.3538L160.21 25.3045L163.605 23.9458L165.778 21.3658L167.68 20.6871H170.804C171.618 20.6871 174.47 19.8724 174.47 19.8724L176.236 16.7485C176.236 16.7485 175.829 13.7604 176.236 13.0804C176.644 12.4018 178.137 9.00714 178.137 9.00714L180.174 6.28979L183.977 4.25378L187.78 3.03113L190.904 1.53644L193.485 0.857788L196.88 1.67249L200.14 4.79645L207.473 10.5004L211.548 13.8964C211.548 13.8964 214.4 17.1552 214.808 17.1552C215.214 17.1552 218.338 15.3898 218.338 15.3898L221.054 14.5751L223.228 14.8471L227.166 16.6125L230.29 18.9205L233.821 18.1058L238.304 17.0191L242.106 17.5631L244.55 18.3778L247.81 20.4151L248.489 23.4031V26.5272C248.489 26.9338 246.588 28.8351 246.588 28.8351C246.588 28.8351 245.501 30.0578 244.822 30.3298C244.144 30.6018 241.97 30.7365 241.97 30.7365L240.34 32.7738L240.205 36.8484L241.02 39.9725C241.02 39.9725 243.872 42.0098 244.144 42.5524C244.414 43.0964 245.094 45.1338 245.094 45.1338L245.909 49.8871L247.538 52.4671L253.65 55.3192L258.404 56.9484L259.762 60.8871L263.293 63.0605L268.725 64.9618L271.713 68.4938L274.158 67.9498L280.405 69.4445L283.801 68.6284L289.097 67.6778L291.537 68.5631V70.6005L291.028 72.2298L288.582 73.8591L286.138 75.2858L283.693 76.9151L282.165 78.9524C282.165 78.9524 282.064 79.2578 281.656 79.5631C281.249 79.8698 279.721 80.2765 279.721 80.2765L278.193 79.6658H275.646L274.73 80.5818L272.896 79.8698L271.877 80.4805L271.776 82.8231L271.877 87.1017L271.98 91.3791L270.86 92.2964L268.414 91.5831L265.766 91.4818L265.257 94.1298L263.117 94.8431L260.265 94.2311L258.126 94.7404L258.84 96.2684L259.349 97.5925L262.201 99.8338L261.793 101.056H260.469L260.368 102.38H257.312L257.108 101.26L255.376 98.4085L254.256 96.7778L253.542 97.3898L253.34 98.6111L250.996 98.3058L250.793 99.4271L249.672 100.547L249.468 102.89L248.45 104.112L246.106 105.436L244.58 107.168L242.644 108.288L241.93 109.511L242.338 111.751L242.644 113.584L242.44 116.946L242.033 119.187L240.505 121.734L239.181 123.567C239.181 123.567 238.365 124.076 237.958 124.179C237.55 124.28 235.004 124.994 235.004 124.994L233.069 126.623L231.541 128.559L230.421 129.883L228.79 131.411L227.976 132.123L226.142 132.226L223.697 132.327H222.272L221.049 133.244L219.929 134.16L219.012 135.587L218.706 137.522L218.197 140.68L217.993 141.699L216.772 142.31L215.244 144.347L214.428 146.384L214.225 148.624L214.122 151.274L214.021 153.616L213.716 154.736L213.206 155.755L213.613 157.182L214.326 158.302L213.206 159.626L211.984 160.747L211.169 162.783V164.923L210.557 166.348C210.557 166.348 209.437 167.266 209.132 167.367C208.826 167.47 208.214 167.672 208.113 168.08C208.012 168.488 207.298 170.423 207.298 170.423L207.094 172.766L207.909 174.803L210.252 176.636L211.78 178.47C211.78 178.47 213.104 180.507 213.41 181.016C213.716 181.526 214.836 183.563 214.836 183.563L215.549 185.804L216.465 187.842L217.484 189.267L217.993 190.694L217.789 192.018L217.382 193.647L218.298 194.055L219.012 193.036L220.234 192.527L220.948 193.342L221.558 194.666L222.373 195.888C222.373 195.888 223.29 197.314 223.697 197.518C224.105 197.722 225.938 198.944 225.938 198.944L227.874 199.86L229.708 201.491L231.133 202.306L233.578 204.343L234.189 204.852L237.346 205.362L237.754 208.315L239.181 209.028L239.69 210.148V211.472C239.69 211.779 239.078 212.695 239.078 212.695L238.365 213.816L238.569 216.362L238.874 217.992L239.893 220.335L240.708 221.964L242.644 225.53L245.394 229.91L250.385 234.595L254.154 238.466L257.516 241.623L260.978 243.967L262.608 244.883L262.71 248.55L265.97 252.828L270.248 256.394L274.322 259.347L277.582 261.894L282.064 265.459L284.916 268.006L286.342 269.431L286.852 270.654L287.258 273.099L287.972 274.219L290.11 275.442L291.537 275.543L292.25 274.219V273.2L293.37 273.302L294.286 274.423H295.509V272.996H296.732L297.75 275.136V276.766L298.769 277.784L302.028 278.09V279.007L301.112 279.923L300.704 282.164L301.316 283.59L302.741 283.692V282.164L304.065 280.228L305.593 280.636L307.121 281.247V282.368L305.084 282.47L304.372 283.284L305.39 284.914L306.51 286.442C306.51 286.442 306.816 287.664 307.121 287.97C307.426 288.276 309.057 290.312 309.057 290.312L310.585 292.656V294.183L311.297 295.1L312.418 297.239L313.437 299.276C313.437 299.276 315.168 301.619 315.372 301.926C315.576 302.231 316.696 303.759 316.696 303.759C316.696 303.759 317.714 305.184 317.714 305.49V307.12L319.141 307.63L320.16 306.815L319.548 305.796H320.16L321.178 306.815L321.993 307.731L322.91 308.546L324.946 309.36L326.474 309.259L328.105 309.972L329.53 311.703V313.028L328.41 313.843L328.309 314.759L329.53 315.167V316.083L328.92 316.796L328.716 320.566L329.53 322.704L330.345 325.352V327.594L331.772 330.344L333.096 332.279L334.318 334.622L334.929 336.456V339.104L335.438 341.447V343.79L336.661 346.336L337.577 348.578C337.577 348.578 338.698 350.308 338.698 350.615C338.698 350.92 339.309 353.263 339.309 353.263V354.995L338.393 355.911V357.439L339.818 359.272L341.957 364.366L343.078 366.81V369.051L343.588 371.496H341.856L341.55 367.014H340.736L340.226 369.662L340.837 371.496L341.856 372.412L341.652 373.33L340.633 374.654V376.079C340.633 376.079 341.449 378.015 341.754 378.32C342.06 378.626 342.976 380.663 342.976 380.663L343.588 381.58V384.024H342.06V382.292L341.245 382.191L340.633 383.414V385.146L342.466 386.876L342.773 390.442L342.874 395.535L345.217 398.692L346.541 400.934L348.069 402.971L348.782 404.499V406.23L346.032 406.943L345.726 409.49L346.846 410.61L348.782 412.036V413.36L347.458 416.416L346.134 416.926H344.504L343.994 412.75L344.504 409.286H343.689L342.365 410.304L341.449 412.138L341.55 413.666L341.449 415.194L341.142 416.926L341.856 418.351L342.67 419.676L343.485 421.611L344.097 423.648C344.097 423.648 343.689 424.158 343.384 424.158H341.55L339.921 421.916L339.208 420.695L338.494 421.102V422.528L339.717 423.648L339.921 425.176L340.124 427.62L339.614 433.528L339.412 435.566L340.328 437.298L341.957 439.436L341.652 440.558H340.124L339.412 438.112L339.208 439.436L339.004 442.086L339.513 444.122L340.226 445.039L340.022 447.687L339.717 449.318L337.985 453.391L337.374 454.308H334.828L333.706 453.086L332.994 454.308L333.197 456.651L332.382 457.975L332.586 459.096L332.485 461.336L331.568 464.392H330.652H329.225H328.105H326.068L324.437 466.022L323.622 467.347L323.113 469.078L322.808 469.892H320.465H317.205L315.27 471.42L314.252 472.134L313.334 473.458V474.579L311.094 475.088L309.77 475.598L308.853 476.208L306.714 478.347L303.046 479.162H301.213C300.806 479.162 298.666 480.487 298.666 480.487L296.528 482.218L295.305 483.236C295.305 483.236 293.676 484.663 293.37 484.968C293.065 485.274 289.906 486.598 289.906 486.598C289.906 486.598 287.666 487.107 287.258 487.311C286.852 487.515 284.508 489.144 284.508 489.144L282.064 490.468C282.064 490.468 280.841 491.794 280.536 492.099C280.23 492.404 278.092 494.034 278.092 494.034L276.156 495.358L274.221 496.682C274.221 496.682 273.1 497.498 272.693 497.599C272.285 497.7 270.656 498.719 270.044 498.923C269.433 499.127 267.396 499.84 266.988 499.84H264.748H263.22L260.877 498.516L259.246 496.988L258.737 495.256L257.413 495.052L255.376 495.664L254.664 496.682L253.542 497.803L252.117 498.719L250.69 498.923L249.162 498.822L247.228 499.127L245.7 499.84L244.477 500.554L244.07 501.674L243.662 502.692L244.376 504.016L245.292 505.136C245.292 505.136 245.7 505.748 246.005 505.85C246.31 505.951 247.125 506.46 247.432 506.563C247.737 506.664 249.265 506.563 249.265 506.563L250.284 507.887L250.589 508.6V509.823L249.162 510.638L247.838 511.554L247.024 512.776L245.19 513.999L241.32 514.508L239.384 515.119L237.55 516.138L236.43 516.647L236.022 518.175L237.653 519.398L238.977 520.008C238.977 520.008 240.301 521.128 240.505 521.435C240.708 521.74 241.829 523.37 241.829 523.37L242.644 525.611L242.44 527.139L241.217 528.768C241.217 528.768 238.874 529.787 238.569 529.888C238.264 529.991 237.55 529.583 236.634 529.888C235.717 530.195 234.597 529.888 234.597 529.888L231.236 530.5H230.013L228.893 531.111L228.077 533.047L227.67 534.778L227.161 536.815L222.17 539.77C222.17 539.77 218.605 541.399 218.298 541.399C217.993 541.399 213.716 543.028 213.716 543.028L211.169 543.742C211.169 543.742 209.132 543.232 208.724 543.742C208.317 544.251 206.177 545.066 206.177 545.066L204.446 545.678L203.224 546.696L200.881 549.039L199.149 551.687L198.13 553.623L197.316 555.863L195.788 558.206L194.668 559.428L192.936 560.855L191.713 561.364L190.084 562.076L188.352 563.4L186.314 564.928C186.314 564.928 185.194 565.438 185.093 565.642C184.99 565.846 182.953 566.864 182.953 566.864C182.953 566.864 181.222 567.475 180.916 567.475H177.554L175.925 566.763L174.092 566.254L173.989 565.235L174.856 564.216L176.536 563.095L177.453 561.262L179.185 560.142L180.509 559.428L180.61 558.511L176.333 558.206L176.434 555.15C176.434 555.15 176.842 554.234 177.045 553.826C177.249 553.419 177.453 549.344 177.453 549.344L178.166 547.816L177.861 537.63L178.878 536.408L178.981 524.694L180.406 521.842L180.916 520.416L183.258 519.194L184.481 517.666L185.805 517.156L187.232 517.055L188.964 515.527L188.556 513.286L187.232 511.554C187.232 511.554 186.009 510.84 185.602 510.739C185.194 510.638 183.768 509.924 183.157 509.823C182.546 509.72 180.204 509.72 180.204 509.72L178.878 507.786L177.657 506.46L175.721 506.359H173.481L172.054 506.868L171.341 507.988C171.341 507.988 170.322 508.192 170.017 508.091C169.712 507.988 168.592 506.97 168.592 506.664C168.592 506.359 168.998 504.627 168.998 504.627L167.674 502.692L165.841 500.35L164.924 499.331L169.406 493.423C169.406 493.423 171.036 492.914 171.341 492.914C171.646 492.914 174.856 493.627 174.856 493.627L177.962 493.83L180.204 491.996L183.056 489.348L188.964 483.746L190.593 480.69L192.325 480.18C192.325 480.18 194.362 479.774 194.668 479.875C194.973 479.978 197.01 480.792 197.316 480.792C197.621 480.792 200.881 479.468 200.881 479.468L203.02 478.144L204.853 476.819L206.993 476.718L209.437 476.616L212.697 477.227L214.122 477.635L214.836 478.551L215.956 480.283L217.178 481.302H220.336L221.661 481.708L221.966 482.931L223.596 483.339C223.596 483.339 225.734 483.848 226.142 483.848C226.55 483.848 227.262 483.135 227.568 482.83C227.874 482.524 228.077 480.894 227.874 480.384C227.67 479.875 226.244 477.532 226.244 477.532C226.244 477.532 225.124 475.8 224.92 475.088C224.716 474.375 222.882 472.439 222.882 472.439L221.253 470.199C221.253 470.199 219.317 467.856 218.91 467.244C218.502 466.634 216.465 465.004 216.465 464.596C216.465 464.188 216.16 461.642 216.16 461.642L215.549 459.503C215.549 459.503 213.716 457.059 213.716 456.55C213.716 456.04 213.817 454.41 213.918 454.104C214.021 453.799 214.632 452.679 214.937 452.372C215.244 452.067 217.077 450.743 217.077 450.743L221.966 448.706L224.309 448.4L227.365 448.91L229.3 450.234C229.3 450.234 231.846 450.743 232.152 450.743H235.616L235.717 440.048L241.93 439.742L247.024 439.539C247.024 439.539 249.57 437.603 249.774 437.196C249.977 436.788 251.404 435.566 251.709 435.566C252.014 435.566 255.173 435.159 255.173 435.159C255.173 435.159 257.21 434.65 257.821 434.14C258.432 433.631 260.978 432.103 260.978 432.103L263.626 430.066L266.276 427.723C266.276 427.723 269.332 427.519 269.637 427.519C269.942 427.519 272.794 427.214 272.794 427.214C272.794 427.214 275.137 426.092 275.442 425.991C275.748 425.89 277.989 424.056 277.989 424.056C277.989 424.056 279.212 421.916 279.313 421.51C279.416 421.102 279.212 409.694 279.212 409.694L278.092 407.046C278.092 407.046 277.174 405.619 277.174 405.11C277.174 404.6 277.073 401.544 277.073 401.544V398.387C277.073 398.387 277.684 396.146 277.888 395.739C278.092 395.331 279.212 392.988 279.212 392.988C279.212 392.988 280.026 391.46 280.23 390.646C280.434 389.831 280.23 388.608 280.434 387.895C280.637 387.182 280.74 385.96 280.74 385.348V383.006C280.74 383.006 280.434 380.663 280.332 380.154C280.23 379.644 279.416 378.422 279.313 377.506C279.212 376.588 278.702 375.774 278.397 374.858C278.092 373.94 277.174 372.616 276.665 371.903C276.156 371.19 274.424 369.56 274.424 369.56L274.017 365.69L272.489 363.246C272.489 363.246 271.266 362.124 271.266 361.514C271.266 360.902 271.572 356.93 271.572 356.522C271.572 356.115 272.285 353.568 272.285 353.568L272.489 351.531L274.118 349.087L276.257 346.846L276.97 344.808L277.582 341.855L277.684 339.919Z" fill="#C7C8C8"/>
<path d="M47.3936 186.839L143.132 362.772L238.948 186.839H191.624L143.132 276.626L94.8776 186.839H47.3936Z" fill="white"/>
<path d="M158.396 363.656L226.761 238.186H280.725L212.348 363.656H158.396Z" fill="white"/>
<path d="M305.049 308.831L324.522 272.831L343.772 308.831H305.049ZM324.452 186.84L228.476 363.655H275.397L286.877 342.429H361.738L373.088 363.655H420.374L324.452 186.84Z" fill="white"/>
<path d="M230.963 230.475L254.739 186.84H308.696L284.916 230.475H230.963Z" fill="white"/>
</svg>
