<svg width="470" height="567" viewBox="0 0 470 567" fill="none" xmlns="http://www.w3.org/2000/svg">
<mask id="mask0_2339_992" style="mask-type:luminance" maskUnits="userSpaceOnUse" x="0" y="50" width="470" height="470">
<path d="M0 50.5099H469.467V519.977H0V50.5099Z" fill="white"/>
</mask>
<g mask="url(#mask0_2339_992)">
<g opacity="0.539993">
<path d="M438.142 519.977H31.3243C14.0243 519.977 -0.000976562 505.953 -0.000976562 488.653V81.8339C-0.000976562 64.5339 14.0243 50.5099 31.3243 50.5099H438.142C455.442 50.5099 469.466 64.5339 469.466 81.8339V488.653C469.466 505.953 455.442 519.977 438.142 519.977Z" fill="#1D1DDD"/>
</g>
</g>
<path d="M277.54 339.061L277.336 337.329V333.867L277.948 331.728L279.782 331.219L280.188 329.691L279.476 328.468L276.726 326.839L275.911 325.616V324.189L277.744 322.865L279.679 321.337L279.984 320.217V317.875C279.984 317.875 280.596 315.633 280.801 315.328C281.003 315.023 281.716 314.004 281.716 314.004V312.272C281.716 311.967 280.902 310.133 280.902 310.133L277.846 308.096L275.809 306.465L272.04 303.92L269.9 301.78L267.558 299.947L266.438 297.705L266.132 296.076V294.141L267.456 292.205L269.391 291.799L271.327 290.473L273.771 289.252L274.688 287.52V284.973L274.078 283.14H271.938L269.086 282.835L266.234 281.612L265.011 279.88L263.891 277.741L262.464 275.603L260.631 274.481L258.187 273.972L256.354 273.056L253.502 271.223V269.389V267.759L252.788 266.537H251.464L250.751 267.453L248.408 269.185L246.371 269.083L244.843 268.064L243.315 265.62L242.704 263.073L241.38 260.017L240.463 257.268V255.536L239.954 251.869V250.137L238.731 248.508C238.731 248.508 236.388 247.896 236.184 247.591C235.982 247.285 234.658 246.063 234.658 246.063L234.046 243.821L232.518 241.173L230.99 238.831L229.462 237.812L226.915 237.201L224.37 235.061L221.11 231.395L219.072 228.543L215.202 224.468L211.432 220.903L209.192 217.644L207.052 214.995L206.442 212.449L205.627 209.189L203.794 205.929C203.794 205.929 202.163 204.3 201.858 204.096C201.552 203.892 200.228 202.364 200.228 202.364H198.395L197.071 204.199L194.931 203.791L194.83 201.652L194.32 199.309L192.182 197.984L190.144 196.151C190.144 196.151 188.82 194.216 188.514 194.113C188.208 194.012 187.495 191.465 187.495 191.465L187.903 189.733L189.33 186.576L189.94 184.641L189.227 182.604L185.255 181.28L181.69 180.159L178.227 179.14L174.662 178.224L170.892 176.492L168.142 174.047L163.966 170.075L159.28 167.631L153.576 164.371L146.65 161.723L143.492 160.092L142.779 158.871L143.594 156.833L145.53 155.712L147.464 154.287L149.807 152.656L150.112 151.231L150.316 144.609L152.354 143.489L154.29 143.591L156.835 144.1C156.835 144.1 158.262 142.879 158.466 142.572C158.67 142.267 160.503 142.572 160.503 142.572L162.234 143.591L164.78 144.609L167.226 144.712L168.244 144.609L169.772 144.1L170.078 143.285L171.402 140.943L173.439 140.229L175.068 139.516L176.495 137.887L178.124 136.359L179.652 133.915L180.263 131.979L180.772 129.737L182.199 127.395L181.791 125.867L179.652 124.033C179.652 124.033 176.291 123.627 175.883 123.524C175.476 123.423 173.031 123.321 172.319 122.812C171.606 122.303 171.198 121.689 171.198 121.689L169.16 120.775L167.836 119.96C167.836 119.96 167.123 118.635 167.123 118.329C167.123 118.024 169.16 117.413 169.16 117.413L170.179 116.496L169.772 115.273H167.531L165.799 115.58H163.151L161.827 114.561L163.355 111.912L165.087 110.893L167.43 109.365L167.632 107.329L167.327 104.884L165.595 103.255L162.846 101.013L159.382 98.7719C159.382 98.7719 157.447 97.1425 157.243 96.8372C157.039 96.5319 154.492 94.6972 154.492 94.6972L153.168 94.0865C153.168 94.0865 149.706 92.9666 149.4 92.9666C149.094 92.9666 146.446 93.5772 146.14 93.7812C145.835 93.9852 143.798 95.8185 143.798 95.8185L141.659 97.8559L140.131 100.504L138.5 102.745C138.5 102.745 137.279 104.476 136.871 104.783C136.463 105.088 135.139 104.884 134.732 104.884C134.324 104.884 132.083 104.069 131.778 103.865C131.472 103.661 128.315 102.133 128.315 102.133L124.75 100.809L121.388 99.7906L114.054 98.0598C114.054 98.0598 112.424 96.7346 112.119 96.4292C111.814 96.1239 111.711 94.5959 111.711 94.5959L110.795 92.6612L108.554 90.8265L106.211 87.1599L105.803 84.8172L104.988 83.4932L102.34 83.3919L102.035 81.4559L102.748 79.2145L105.294 77.9932L105.498 76.1599L106.312 72.8998L108.146 71.3719L109.164 69.4359L109.063 64.8532L105.192 64.6492L102.646 62.8159L101.016 65.1586C101.016 65.1586 98.7752 65.6679 98.4698 65.6679C98.1645 65.6679 96.5338 64.2412 96.5338 64.2412L95.3125 60.8799L95.2098 58.3332L94.5992 56.3986L92.9698 54.6665L90.4232 51.6105L85.9405 47.9439L82.1098 44.0732L78.4032 39.4892L75.8618 35.8546L78.5045 35.6185L82.1098 33.1385L84.6898 29.4719L87.5418 24.3105L89.4432 22.5452L91.3445 22.9518L95.6912 24.0385L100.852 27.7065L104.791 31.5092L106.692 34.9039L109.68 35.8546L113.075 33.6812L114.434 30.6932L117.15 27.8412L118.915 24.4466C118.915 24.4466 119.594 22.5452 120.002 22.4092C120.408 22.2732 123.804 21.5945 123.804 21.5945L126.248 23.9025L126.928 27.8412C126.928 27.8412 128.558 29.7438 128.966 29.7438C129.372 29.7438 130.595 28.2492 130.595 28.2492V23.3599L132.09 23.0879L135.62 27.5706L138.744 30.4225L141.052 32.7305L144.312 34.9039L147.3 32.8666L147.979 28.3852V24.4466L151.646 20.7799L153.547 20.5079L155.992 21.3226L158.302 23.4959L160.067 24.4466L163.462 23.0879L165.635 20.5079L167.536 19.8292H170.66C171.475 19.8292 174.327 19.0145 174.327 19.0145L176.092 15.8906C176.092 15.8906 175.686 12.9025 176.092 12.2225C176.5 11.5439 177.994 8.14923 177.994 8.14923L180.031 5.43188L183.834 3.39587L187.636 2.17322L190.76 0.678528L193.342 -0.00012207L196.736 0.814575L199.996 3.93854L207.33 9.64252L211.404 13.0385C211.404 13.0385 214.257 16.2972 214.664 16.2972C215.071 16.2972 218.195 14.5319 218.195 14.5319L220.911 13.7172L223.085 13.9892L227.023 15.7546L230.147 18.0626L233.678 17.2479L238.16 16.1612L241.963 16.7052L244.407 17.5199L247.667 19.5572L248.346 22.5452V25.6693C248.346 26.0759 246.444 27.9772 246.444 27.9772C246.444 27.9772 245.358 29.1999 244.679 29.4719C244.001 29.7439 241.827 29.8785 241.827 29.8785L240.197 31.9159L240.062 35.9905L240.876 39.1146C240.876 39.1146 243.729 41.1519 244 41.6945C244.271 42.2385 244.951 44.2759 244.951 44.2759L245.766 49.0292L247.395 51.6092L253.507 54.4612L258.26 56.0905L259.619 60.0292L263.15 62.2025L268.582 64.1039L271.57 67.6359L274.015 67.0919L280.262 68.5865L283.658 67.7705L288.954 66.8199L291.394 67.7052V69.7426L290.884 71.3719L288.439 73.0012L285.995 74.4279L283.55 76.0572L282.022 78.0945C282.022 78.0945 281.921 78.3998 281.512 78.7052C281.106 79.0118 279.578 79.4186 279.578 79.4186L278.05 78.8079H275.503L274.587 79.7239L272.752 79.0119L271.734 79.6226L271.632 81.9652L271.734 86.2438L271.836 90.5212L270.716 91.4385L268.271 90.7252L265.623 90.6239L265.114 93.2719L262.974 93.9852L260.122 93.3732L257.983 93.8825L258.697 95.4105L259.206 96.7346L262.058 98.9759L261.65 100.199H260.326L260.224 101.523H257.168L256.964 100.403L255.232 97.5506L254.112 95.9199L253.399 96.5319L253.197 97.7532L250.852 97.4479L250.65 98.5692L249.528 99.6892L249.324 102.032L248.307 103.255L245.963 104.579L244.436 106.311L242.5 107.431L241.787 108.653L242.195 110.893L242.5 112.727L242.296 116.088L241.89 118.329L240.362 120.876L239.038 122.709C239.038 122.709 238.222 123.219 237.815 123.321C237.407 123.423 234.861 124.136 234.861 124.136L232.926 125.765L231.398 127.701L230.278 129.025L228.647 130.553L227.832 131.265L225.999 131.368L223.554 131.469H222.128L220.906 132.387L219.786 133.303L218.868 134.729L218.563 136.664L218.054 139.823L217.85 140.841L216.628 141.452L215.1 143.489L214.284 145.527L214.082 147.767L213.979 150.416L213.878 152.759L213.572 153.879L213.063 154.897L213.47 156.324L214.183 157.444L213.063 158.768L211.84 159.889L211.026 161.925V164.065L210.414 165.491C210.414 165.491 209.294 166.408 208.988 166.509C208.683 166.612 208.071 166.815 207.97 167.223C207.868 167.631 207.155 169.565 207.155 169.565L206.951 171.908L207.766 173.945L210.108 175.779L211.636 177.612C211.636 177.612 212.96 179.649 213.267 180.159C213.572 180.668 214.692 182.705 214.692 182.705L215.406 184.947L216.322 186.984L217.34 188.409L217.85 189.836L217.646 191.16L217.239 192.789L218.155 193.197L218.868 192.179L220.091 191.669L220.804 192.484L221.415 193.808L222.23 195.031C222.23 195.031 223.147 196.456 223.554 196.66C223.962 196.864 225.795 198.087 225.795 198.087L227.731 199.003L229.564 200.633L230.99 201.448L233.435 203.485L234.046 203.995L237.203 204.504L237.611 207.457L239.038 208.171L239.547 209.291V210.615C239.547 210.921 238.935 211.837 238.935 211.837L238.222 212.959L238.426 215.504L238.731 217.135L239.75 219.477L240.564 221.107L242.5 224.672L245.251 229.052L250.242 233.737L254.011 237.608L257.372 240.765L260.835 243.109L262.464 244.025L262.567 247.692L265.827 251.971L270.104 255.536L274.179 258.489L277.439 261.036L281.921 264.601L284.772 267.148L286.199 268.573L286.708 269.796L287.115 272.241L287.828 273.361L289.967 274.584L291.394 274.685L292.107 273.361V272.343L293.227 272.444L294.143 273.565H295.366V272.139H296.588L297.607 274.279V275.908L298.626 276.927L301.884 277.232V278.149L300.968 279.065L300.56 281.307L301.172 282.732L302.598 282.835V281.307L303.922 279.371L305.45 279.779L306.978 280.389V281.511L304.94 281.612L304.229 282.427L305.247 284.056L306.367 285.584C306.367 285.584 306.673 286.807 306.978 287.112C307.283 287.419 308.914 289.455 308.914 289.455L310.442 291.799V293.325L311.154 294.243L312.275 296.381L313.294 298.419C313.294 298.419 315.025 300.761 315.229 301.068C315.432 301.373 316.552 302.901 316.552 302.901C316.552 302.901 317.571 304.327 317.571 304.632V306.263L318.998 306.772L320.016 305.957L319.404 304.939H320.016L321.035 305.957L321.85 306.873L322.767 307.688L324.803 308.503L326.331 308.401L327.962 309.115L329.387 310.845V312.171L328.267 312.985L328.166 313.901L329.387 314.309V315.225L328.776 315.939L328.572 319.708L329.387 321.847L330.202 324.495V326.736L331.629 329.487L332.952 331.421L334.175 333.764L334.786 335.599V338.247L335.295 340.589V342.932L336.518 345.479L337.434 347.72C337.434 347.72 338.555 349.451 338.555 349.757C338.555 350.063 339.166 352.405 339.166 352.405V354.137L338.25 355.053V356.581L339.675 358.415L341.814 363.508L342.935 365.952V368.193L343.445 370.639H341.712L341.407 366.156H340.592L340.083 368.804L340.694 370.639L341.712 371.555L341.508 372.472L340.49 373.796V375.221C340.49 375.221 341.306 377.157 341.611 377.463C341.917 377.768 342.832 379.805 342.832 379.805L343.445 380.723V383.167H341.917V381.435L341.102 381.333L340.49 382.556V384.288L342.323 386.019L342.63 389.584L342.731 394.677L345.074 397.835L346.398 400.076L347.926 402.113L348.639 403.641V405.372L345.888 406.085L345.583 408.632L346.703 409.752L348.639 411.179V412.503L347.315 415.559L345.991 416.068H344.361L343.851 411.892L344.361 408.428H343.546L342.222 409.447L341.306 411.28L341.407 412.808L341.306 414.336L340.999 416.068L341.712 417.493L342.527 418.819L343.342 420.753L343.954 422.791C343.954 422.791 343.546 423.3 343.24 423.3H341.407L339.778 421.059L339.065 419.837L338.351 420.244V421.671L339.574 422.791L339.778 424.319L339.98 426.763L339.471 432.671L339.268 434.708L340.185 436.44L341.814 438.579L341.508 439.7H339.98L339.268 437.255L339.065 438.579L338.861 441.228L339.37 443.264L340.083 444.181L339.879 446.829L339.574 448.46L337.842 452.533L337.231 453.451H334.685L333.563 452.228L332.851 453.451L333.054 455.793L332.239 457.117L332.443 458.239L332.342 460.479L331.424 463.535H330.508H329.082H327.962H325.924L324.294 465.164L323.479 466.489L322.97 468.22L322.664 469.035H320.322H317.062L315.127 470.563L314.108 471.276L313.191 472.6V473.721L310.951 474.231L309.627 474.74L308.71 475.351L306.571 477.489L302.903 478.304H301.07C300.663 478.304 298.523 479.629 298.523 479.629L296.384 481.36L295.162 482.379C295.162 482.379 293.532 483.805 293.227 484.111C292.922 484.416 289.763 485.74 289.763 485.74C289.763 485.74 287.523 486.249 287.115 486.453C286.708 486.657 284.364 488.287 284.364 488.287L281.921 489.611C281.921 489.611 280.698 490.936 280.393 491.241C280.087 491.547 277.948 493.176 277.948 493.176L276.012 494.5L274.078 495.824C274.078 495.824 272.956 496.64 272.55 496.741C272.142 496.843 270.512 497.861 269.9 498.065C269.29 498.269 267.252 498.983 266.844 498.983H264.604H263.077L260.734 497.659L259.103 496.131L258.594 494.399L257.27 494.195L255.232 494.807L254.52 495.824L253.399 496.945L251.974 497.861L250.547 498.065L249.019 497.964L247.085 498.269L245.556 498.983L244.334 499.696L243.927 500.816L243.519 501.835L244.232 503.159L245.148 504.279C245.148 504.279 245.556 504.891 245.862 504.992C246.167 505.093 246.982 505.603 247.288 505.705C247.594 505.807 249.122 505.705 249.122 505.705L250.14 507.029L250.446 507.743V508.965L249.019 509.78L247.695 510.696L246.88 511.919L245.047 513.141L241.176 513.651L239.24 514.261L237.407 515.28L236.287 515.789L235.879 517.317L237.51 518.54L238.834 519.151C238.834 519.151 240.158 520.271 240.362 520.577C240.564 520.883 241.686 522.512 241.686 522.512L242.5 524.753L242.296 526.281L241.074 527.911C241.074 527.911 238.731 528.929 238.426 529.031C238.12 529.133 237.407 528.725 236.491 529.031C235.574 529.337 234.454 529.031 234.454 529.031L231.092 529.643H229.87L228.75 530.253L227.934 532.189L227.527 533.92L227.018 535.957L222.027 538.912C222.027 538.912 218.462 540.541 218.155 540.541C217.85 540.541 213.572 542.171 213.572 542.171L211.026 542.884C211.026 542.884 208.988 542.375 208.58 542.884C208.174 543.393 206.034 544.208 206.034 544.208L204.303 544.82L203.08 545.839L200.738 548.181L199.006 550.829L197.987 552.765L197.172 555.005L195.644 557.348L194.524 558.571L192.792 559.997L191.57 560.507L189.94 561.219L188.208 562.543L186.171 564.071C186.171 564.071 185.051 564.58 184.95 564.784C184.847 564.988 182.81 566.007 182.81 566.007C182.81 566.007 181.079 566.617 180.772 566.617H177.411L175.782 565.905L173.948 565.396L173.846 564.377L174.712 563.359L176.392 562.237L177.31 560.404L179.042 559.284L180.366 558.571L180.467 557.653L176.19 557.348L176.291 554.292C176.291 554.292 176.699 553.376 176.902 552.968C177.106 552.561 177.31 548.487 177.31 548.487L178.023 546.959L177.718 536.772L178.735 535.551L178.838 523.836L180.263 520.984L180.772 519.559L183.115 518.336L184.338 516.808L185.662 516.299L187.088 516.197L188.82 514.669L188.412 512.428L187.088 510.696C187.088 510.696 185.866 509.983 185.459 509.881C185.051 509.78 183.624 509.067 183.014 508.965C182.403 508.863 180.06 508.863 180.06 508.863L178.735 506.928L177.514 505.603L175.578 505.501H173.338L171.911 506.011L171.198 507.131C171.198 507.131 170.179 507.335 169.874 507.233C169.568 507.131 168.448 506.112 168.448 505.807C168.448 505.501 168.855 503.769 168.855 503.769L167.531 501.835L165.698 499.492L164.78 498.473L169.263 492.565C169.263 492.565 170.892 492.056 171.198 492.056C171.503 492.056 174.712 492.769 174.712 492.769L177.819 492.972L180.06 491.139L182.912 488.491L188.82 482.888L190.45 479.832L192.182 479.323C192.182 479.323 194.219 478.916 194.524 479.017C194.83 479.12 196.867 479.935 197.172 479.935C197.478 479.935 200.738 478.611 200.738 478.611L202.876 477.287L204.71 475.961L206.85 475.86L209.294 475.759L212.554 476.369L213.979 476.777L214.692 477.693L215.812 479.425L217.035 480.444H220.192L221.518 480.851L221.823 482.073L223.452 482.481C223.452 482.481 225.591 482.991 225.999 482.991C226.407 482.991 227.119 482.277 227.424 481.972C227.731 481.667 227.934 480.036 227.731 479.527C227.527 479.017 226.1 476.675 226.1 476.675C226.1 476.675 224.98 474.943 224.776 474.231C224.572 473.517 222.739 471.581 222.739 471.581L221.11 469.341C221.11 469.341 219.174 466.999 218.767 466.387C218.359 465.776 216.322 464.147 216.322 463.739C216.322 463.331 216.016 460.784 216.016 460.784L215.406 458.645C215.406 458.645 213.572 456.201 213.572 455.692C213.572 455.183 213.674 453.552 213.775 453.247C213.878 452.941 214.488 451.821 214.794 451.515C215.1 451.209 216.934 449.885 216.934 449.885L221.823 447.848L224.166 447.543L227.222 448.052L229.156 449.376C229.156 449.376 231.703 449.885 232.008 449.885H235.472L235.574 439.191L241.787 438.884L246.88 438.681C246.88 438.681 249.427 436.745 249.631 436.339C249.834 435.931 251.26 434.708 251.566 434.708C251.871 434.708 255.03 434.301 255.03 434.301C255.03 434.301 257.067 433.792 257.678 433.283C258.288 432.773 260.835 431.245 260.835 431.245L263.483 429.208L266.132 426.865C266.132 426.865 269.188 426.661 269.494 426.661C269.799 426.661 272.651 426.356 272.651 426.356C272.651 426.356 274.994 425.235 275.299 425.133C275.604 425.032 277.846 423.199 277.846 423.199C277.846 423.199 279.068 421.059 279.17 420.652C279.272 420.244 279.068 408.836 279.068 408.836L277.948 406.188C277.948 406.188 277.031 404.761 277.031 404.252C277.031 403.743 276.93 400.687 276.93 400.687V397.529C276.93 397.529 277.54 395.288 277.744 394.881C277.948 394.473 279.068 392.131 279.068 392.131C279.068 392.131 279.883 390.603 280.087 389.788C280.291 388.973 280.087 387.751 280.291 387.037C280.494 386.324 280.596 385.103 280.596 384.491V382.148C280.596 382.148 280.291 379.805 280.188 379.296C280.087 378.787 279.272 377.564 279.17 376.648C279.068 375.731 278.559 374.916 278.254 374C277.949 373.083 277.031 371.759 276.522 371.045C276.012 370.332 274.28 368.703 274.28 368.703L273.874 364.832L272.346 362.388C272.346 362.388 271.123 361.267 271.123 360.656C271.123 360.044 271.428 356.072 271.428 355.664C271.428 355.257 272.142 352.711 272.142 352.711L272.346 350.673L273.975 348.229L276.114 345.988L276.827 343.951L277.439 340.997L277.54 339.061Z" fill="#C7C8C8"/>
<path d="M47.251 185.981L142.99 361.914L238.806 185.981H191.482L142.99 275.767L94.735 185.981H47.251Z" fill="white"/>
<path d="M158.253 362.798L226.619 237.329H280.583L212.205 362.798H158.253Z" fill="white"/>
<path d="M304.906 307.973L324.379 271.973L343.629 307.973H304.906ZM324.309 185.982L228.333 362.797H275.254L286.734 341.572H361.595L372.945 362.797H420.231L324.309 185.982Z" fill="white"/>
<path d="M230.82 229.616L254.596 185.982H308.554L284.774 229.616H230.82Z" fill="white"/>
<path d="M59.3443 395.703L64.9814 411.687H65.2039L70.841 395.703H73.2516L66.2794 414.691H63.9059L56.9337 395.703H59.3443ZM75.9125 414.691V400.45H78.1006V414.691H75.9125ZM77.0251 398.077C76.5986 398.077 76.2308 397.932 75.9218 397.641C75.6189 397.351 75.4675 397.001 75.4675 396.593C75.4675 396.185 75.6189 395.836 75.9218 395.546C76.2308 395.255 76.5986 395.11 77.0251 395.11C77.4516 395.11 77.8163 395.255 78.1191 395.546C78.4282 395.836 78.5827 396.185 78.5827 396.593C78.5827 397.001 78.4282 397.351 78.1191 397.641C77.8163 397.932 77.4516 398.077 77.0251 398.077ZM88.0791 414.988C86.7069 414.988 85.5232 414.685 84.5281 414.079C83.5391 413.468 82.7758 412.615 82.238 411.521C81.7065 410.42 81.4407 409.141 81.4407 407.682C81.4407 406.223 81.7065 404.938 82.238 403.825C82.7758 402.706 83.5237 401.835 84.4817 401.211C85.446 400.58 86.5709 400.265 87.8566 400.265C88.5983 400.265 89.3308 400.389 90.0539 400.636C90.7771 400.883 91.4354 401.285 92.0288 401.841C92.6222 402.391 93.095 403.121 93.4473 404.029C93.7996 404.938 93.9758 406.057 93.9758 407.385V408.313H82.9983V406.421H91.7506C91.7506 405.618 91.5899 404.901 91.2685 404.27C90.9533 403.64 90.5021 403.142 89.9149 402.777C89.3338 402.413 88.6477 402.23 87.8566 402.23C86.9851 402.23 86.231 402.447 85.5943 402.879C84.9639 403.306 84.4786 403.862 84.1387 404.548C83.7987 405.234 83.6288 405.97 83.6288 406.755V408.016C83.6288 409.091 83.8142 410.003 84.185 410.751C84.5621 411.493 85.0844 412.058 85.7519 412.448C86.4195 412.831 87.1952 413.023 88.0791 413.023C88.6539 413.023 89.1731 412.942 89.6367 412.781C90.1065 412.615 90.5113 412.367 90.8513 412.04C91.1912 411.706 91.4539 411.292 91.6394 410.797L93.7533 411.391C93.5308 412.108 93.1568 412.738 92.6314 413.282C92.106 413.82 91.457 414.24 90.6844 414.543C89.9118 414.84 89.0433 414.988 88.0791 414.988ZM103.498 400.45V402.305H96.1175V400.45H103.498ZM98.2685 397.038H100.457V410.612C100.457 411.23 100.546 411.694 100.725 412.003C100.911 412.306 101.146 412.51 101.43 412.615C101.721 412.713 102.027 412.763 102.348 412.763C102.589 412.763 102.787 412.751 102.941 412.726C103.096 412.695 103.22 412.67 103.312 412.652L103.757 414.617C103.609 414.673 103.402 414.728 103.136 414.784C102.87 414.846 102.533 414.877 102.125 414.877C101.507 414.877 100.902 414.744 100.308 414.478C99.7211 414.212 99.2328 413.808 98.8434 413.264C98.4601 412.72 98.2685 412.034 98.2685 411.205V397.038ZM108.977 406.125V414.691H106.789V400.45H108.903V402.675H109.088C109.422 401.952 109.929 401.371 110.609 400.932C111.289 400.487 112.167 400.265 113.242 400.265C114.206 400.265 115.05 400.463 115.773 400.858C116.496 401.248 117.059 401.841 117.461 402.638C117.862 403.43 118.063 404.431 118.063 405.642V414.691H115.875V405.791C115.875 404.672 115.585 403.8 115.004 403.176C114.423 402.546 113.625 402.23 112.612 402.23C111.913 402.23 111.289 402.382 110.739 402.685C110.195 402.988 109.765 403.43 109.45 404.011C109.135 404.592 108.977 405.296 108.977 406.125ZM126.252 415.025C125.35 415.025 124.531 414.855 123.795 414.515C123.06 414.169 122.476 413.672 122.043 413.023C121.61 412.367 121.394 411.576 121.394 410.649C121.394 409.833 121.555 409.172 121.876 408.665C122.198 408.152 122.627 407.75 123.165 407.46C123.703 407.169 124.296 406.953 124.945 406.811C125.6 406.662 126.259 406.545 126.92 406.458C127.785 406.347 128.487 406.264 129.025 406.208C129.568 406.146 129.964 406.044 130.211 405.902C130.465 405.76 130.591 405.513 130.591 405.16V405.086C130.591 404.171 130.341 403.46 129.84 402.954C129.346 402.447 128.595 402.193 127.587 402.193C126.543 402.193 125.724 402.422 125.13 402.879C124.537 403.337 124.12 403.825 123.879 404.344L121.802 403.603C122.173 402.737 122.667 402.064 123.285 401.581C123.91 401.093 124.59 400.753 125.325 400.562C126.067 400.364 126.796 400.265 127.513 400.265C127.971 400.265 128.496 400.321 129.089 400.432C129.689 400.537 130.267 400.756 130.823 401.09C131.386 401.424 131.852 401.928 132.223 402.601C132.594 403.275 132.78 404.177 132.78 405.309V414.691H130.591V412.763H130.48C130.332 413.072 130.085 413.403 129.738 413.755C129.392 414.107 128.932 414.407 128.357 414.654C127.782 414.902 127.081 415.025 126.252 415.025ZM126.586 413.06C127.451 413.06 128.181 412.89 128.774 412.55C129.374 412.21 129.825 411.771 130.128 411.233C130.437 410.695 130.591 410.13 130.591 409.536V407.534C130.499 407.645 130.295 407.747 129.98 407.84C129.67 407.926 129.312 408.004 128.904 408.072C128.502 408.133 128.11 408.189 127.727 408.238C127.349 408.282 127.044 408.319 126.809 408.35C126.24 408.424 125.708 408.544 125.214 408.711C124.726 408.872 124.33 409.116 124.027 409.444C123.73 409.765 123.582 410.204 123.582 410.76C123.582 411.521 123.863 412.095 124.426 412.485C124.995 412.868 125.715 413.06 126.586 413.06ZM136.773 414.691V400.45H138.887V402.675H139.073C139.369 401.915 139.848 401.325 140.51 400.905C141.171 400.478 141.965 400.265 142.892 400.265C143.832 400.265 144.614 400.478 145.238 400.905C145.869 401.325 146.36 401.915 146.712 402.675H146.861C147.225 401.94 147.772 401.356 148.502 400.923C149.231 400.484 150.106 400.265 151.126 400.265C152.399 400.265 153.44 400.664 154.25 401.461C155.06 402.252 155.465 403.485 155.465 405.16V414.691H153.277V405.16C153.277 404.109 152.989 403.358 152.414 402.907C151.839 402.456 151.163 402.23 150.384 402.23C149.383 402.23 148.607 402.533 148.057 403.139C147.507 403.739 147.232 404.499 147.232 405.42V414.691H145.006V404.938C145.006 404.128 144.744 403.476 144.218 402.981C143.693 402.481 143.016 402.23 142.188 402.23C141.619 402.23 141.088 402.382 140.593 402.685C140.105 402.988 139.709 403.408 139.406 403.946C139.11 404.477 138.961 405.092 138.961 405.791V414.691H136.773ZM169.404 395.703V414.691H167.105V395.703H169.404ZM175.906 406.125V414.691H173.718V400.45H175.832V402.675H176.017C176.351 401.952 176.858 401.371 177.538 400.932C178.218 400.487 179.096 400.265 180.171 400.265C181.135 400.265 181.979 400.463 182.702 400.858C183.425 401.248 183.988 401.841 184.39 402.638C184.791 403.43 184.992 404.431 184.992 405.642V414.691H182.804V405.791C182.804 404.672 182.514 403.8 181.933 403.176C181.352 402.546 180.554 402.23 179.541 402.23C178.842 402.23 178.218 402.382 177.668 402.685C177.124 402.988 176.694 403.43 176.379 404.011C176.064 404.592 175.906 405.296 175.906 406.125ZM195.184 400.45V402.305H187.804V400.45H195.184ZM189.955 397.038H192.143V410.612C192.143 411.23 192.233 411.694 192.412 412.003C192.597 412.306 192.832 412.51 193.116 412.615C193.407 412.713 193.713 412.763 194.034 412.763C194.275 412.763 194.473 412.751 194.628 412.726C194.782 412.695 194.906 412.67 194.999 412.652L195.444 414.617C195.295 414.673 195.088 414.728 194.822 414.784C194.557 414.846 194.22 414.877 193.812 414.877C193.194 414.877 192.588 414.744 191.995 414.478C191.407 414.212 190.919 413.808 190.53 413.264C190.146 412.72 189.955 412.034 189.955 411.205V397.038ZM204.293 414.988C202.921 414.988 201.737 414.685 200.742 414.079C199.753 413.468 198.99 412.615 198.452 411.521C197.921 410.42 197.655 409.141 197.655 407.682C197.655 406.223 197.921 404.938 198.452 403.825C198.99 402.706 199.738 401.835 200.696 401.211C201.66 400.58 202.785 400.265 204.071 400.265C204.812 400.265 205.545 400.389 206.268 400.636C206.991 400.883 207.65 401.285 208.243 401.841C208.836 402.391 209.309 403.121 209.661 404.029C210.014 404.938 210.19 406.057 210.19 407.385V408.313H199.212V406.421H207.965C207.965 405.618 207.804 404.901 207.483 404.27C207.167 403.64 206.716 403.142 206.129 402.777C205.548 402.413 204.862 402.23 204.071 402.23C203.199 402.23 202.445 402.447 201.808 402.879C201.178 403.306 200.693 403.862 200.353 404.548C200.013 405.234 199.843 405.97 199.843 406.755V408.016C199.843 409.091 200.028 410.003 200.399 410.751C200.776 411.493 201.299 412.058 201.966 412.448C202.634 412.831 203.409 413.023 204.293 413.023C204.868 413.023 205.387 412.942 205.851 412.781C206.321 412.615 206.725 412.367 207.065 412.04C207.405 411.706 207.668 411.292 207.854 410.797L209.967 411.391C209.745 412.108 209.371 412.738 208.846 413.282C208.32 413.82 207.671 414.24 206.899 414.543C206.126 414.84 205.257 414.988 204.293 414.988ZM213.518 414.691V400.45H215.632V402.601H215.781C216.04 401.897 216.51 401.325 217.19 400.886C217.87 400.447 218.636 400.228 219.489 400.228C219.65 400.228 219.851 400.231 220.092 400.237C220.333 400.243 220.515 400.253 220.639 400.265V402.49C220.565 402.472 220.395 402.444 220.129 402.407C219.869 402.363 219.594 402.342 219.304 402.342C218.612 402.342 217.993 402.487 217.45 402.777C216.912 403.062 216.485 403.457 216.17 403.964C215.861 404.465 215.707 405.037 215.707 405.679V414.691H213.518ZM225.421 406.125V414.691H223.233V400.45H225.347V402.675H225.532C225.866 401.952 226.373 401.371 227.053 400.932C227.732 400.487 228.61 400.265 229.686 400.265C230.65 400.265 231.494 400.463 232.217 400.858C232.94 401.248 233.502 401.841 233.904 402.638C234.306 403.43 234.507 404.431 234.507 405.642V414.691H232.319V405.791C232.319 404.672 232.028 403.8 231.447 403.176C230.866 402.546 230.069 402.23 229.055 402.23C228.357 402.23 227.732 402.382 227.182 402.685C226.638 402.988 226.209 403.43 225.894 404.011C225.578 404.592 225.421 405.296 225.421 406.125ZM242.696 415.025C241.794 415.025 240.975 414.855 240.239 414.515C239.503 414.169 238.919 413.672 238.487 413.023C238.054 412.367 237.838 411.576 237.838 410.649C237.838 409.833 237.998 409.172 238.32 408.665C238.641 408.152 239.071 407.75 239.609 407.46C240.146 407.169 240.74 406.953 241.389 406.811C242.044 406.662 242.702 406.545 243.364 406.458C244.229 406.347 244.93 406.264 245.468 406.208C246.012 406.146 246.408 406.044 246.655 405.902C246.908 405.76 247.035 405.513 247.035 405.16V405.086C247.035 404.171 246.785 403.46 246.284 402.954C245.79 402.447 245.039 402.193 244.031 402.193C242.986 402.193 242.167 402.422 241.574 402.879C240.981 403.337 240.564 403.825 240.322 404.344L238.246 403.603C238.616 402.737 239.111 402.064 239.729 401.581C240.353 401.093 241.033 400.753 241.769 400.562C242.511 400.364 243.24 400.265 243.957 400.265C244.414 400.265 244.94 400.321 245.533 400.432C246.133 400.537 246.711 400.756 247.267 401.09C247.829 401.424 248.296 401.928 248.667 402.601C249.038 403.275 249.223 404.177 249.223 405.309V414.691H247.035V412.763H246.924C246.775 413.072 246.528 413.403 246.182 413.755C245.836 414.107 245.375 414.407 244.801 414.654C244.226 414.902 243.524 415.025 242.696 415.025ZM243.03 413.06C243.895 413.06 244.624 412.89 245.218 412.55C245.817 412.21 246.269 411.771 246.571 411.233C246.881 410.695 247.035 410.13 247.035 409.536V407.534C246.942 407.645 246.738 407.747 246.423 407.84C246.114 407.926 245.756 408.004 245.348 408.072C244.946 408.133 244.553 408.189 244.17 408.238C243.793 408.282 243.487 408.319 243.252 408.35C242.684 408.424 242.152 408.544 241.658 408.711C241.169 408.872 240.774 409.116 240.471 409.444C240.174 409.765 240.026 410.204 240.026 410.76C240.026 411.521 240.307 412.095 240.869 412.485C241.438 412.868 242.158 413.06 243.03 413.06ZM259.41 400.45V402.305H252.03V400.45H259.41ZM254.181 397.038H256.369V410.612C256.369 411.23 256.459 411.694 256.638 412.003C256.823 412.306 257.058 412.51 257.343 412.615C257.633 412.713 257.939 412.763 258.261 412.763C258.502 412.763 258.699 412.751 258.854 412.726C259.008 412.695 259.132 412.67 259.225 412.652L259.67 414.617C259.522 414.673 259.314 414.728 259.049 414.784C258.783 414.846 258.446 414.877 258.038 414.877C257.42 414.877 256.814 414.744 256.221 414.478C255.634 414.212 255.145 413.808 254.756 413.264C254.373 412.72 254.181 412.034 254.181 411.205V397.038ZM262.702 414.691V400.45H264.89V414.691H262.702ZM263.814 398.077C263.388 398.077 263.02 397.932 262.711 397.641C262.408 397.351 262.257 397.001 262.257 396.593C262.257 396.185 262.408 395.836 262.711 395.546C263.02 395.255 263.388 395.11 263.814 395.11C264.241 395.11 264.605 395.255 264.908 395.546C265.217 395.836 265.372 396.185 265.372 396.593C265.372 397.001 265.217 397.351 264.908 397.641C264.605 397.932 264.241 398.077 263.814 398.077ZM274.683 414.988C273.397 414.988 272.269 414.682 271.299 414.07C270.334 413.458 269.58 412.602 269.036 411.502C268.499 410.402 268.23 409.116 268.23 407.645C268.23 406.162 268.499 404.867 269.036 403.76C269.58 402.654 270.334 401.795 271.299 401.183C272.269 400.571 273.397 400.265 274.683 400.265C275.968 400.265 277.093 400.571 278.058 401.183C279.028 401.795 279.782 402.654 280.32 403.76C280.864 404.867 281.136 406.162 281.136 407.645C281.136 409.116 280.864 410.402 280.32 411.502C279.782 412.602 279.028 413.458 278.058 414.07C277.093 414.682 275.968 414.988 274.683 414.988ZM274.683 413.023C275.659 413.023 276.463 412.772 277.093 412.272C277.724 411.771 278.191 411.113 278.493 410.297C278.796 409.481 278.948 408.597 278.948 407.645C278.948 406.693 278.796 405.806 278.493 404.984C278.191 404.162 277.724 403.498 277.093 402.991C276.463 402.484 275.659 402.23 274.683 402.23C273.706 402.23 272.903 402.484 272.272 402.991C271.642 403.498 271.175 404.162 270.872 404.984C270.569 405.806 270.418 406.693 270.418 407.645C270.418 408.597 270.569 409.481 270.872 410.297C271.175 411.113 271.642 411.771 272.272 412.272C272.903 412.772 273.706 413.023 274.683 413.023ZM286.664 406.125V414.691H284.476V400.45H286.59V402.675H286.775C287.109 401.952 287.616 401.371 288.296 400.932C288.976 400.487 289.853 400.265 290.929 400.265C291.893 400.265 292.737 400.463 293.46 400.858C294.183 401.248 294.746 401.841 295.147 402.638C295.549 403.43 295.75 404.431 295.75 405.642V414.691H293.562V405.791C293.562 404.672 293.271 403.8 292.69 403.176C292.109 402.546 291.312 402.23 290.298 402.23C289.6 402.23 288.976 402.382 288.426 402.685C287.882 402.988 287.452 403.43 287.137 404.011C286.822 404.592 286.664 405.296 286.664 406.125ZM303.939 415.025C303.037 415.025 302.218 414.855 301.482 414.515C300.747 414.169 300.163 413.672 299.73 413.023C299.297 412.367 299.081 411.576 299.081 410.649C299.081 409.833 299.242 409.172 299.563 408.665C299.884 408.152 300.314 407.75 300.852 407.46C301.389 407.169 301.983 406.953 302.632 406.811C303.287 406.662 303.945 406.545 304.607 406.458C305.472 406.347 306.174 406.264 306.711 406.208C307.255 406.146 307.651 406.044 307.898 405.902C308.152 405.76 308.278 405.513 308.278 405.16V405.086C308.278 404.171 308.028 403.46 307.527 402.954C307.033 402.447 306.282 402.193 305.274 402.193C304.23 402.193 303.411 402.422 302.817 402.879C302.224 403.337 301.807 403.825 301.566 404.344L299.489 403.603C299.86 402.737 300.354 402.064 300.972 401.581C301.597 401.093 302.276 400.753 303.012 400.562C303.754 400.364 304.483 400.265 305.2 400.265C305.657 400.265 306.183 400.321 306.776 400.432C307.376 400.537 307.954 400.756 308.51 401.09C309.072 401.424 309.539 401.928 309.91 402.601C310.281 403.275 310.466 404.177 310.466 405.309V414.691H308.278V412.763H308.167C308.019 413.072 307.771 413.403 307.425 413.755C307.079 414.107 306.619 414.407 306.044 414.654C305.469 414.902 304.767 415.025 303.939 415.025ZM304.273 413.06C305.138 413.06 305.868 412.89 306.461 412.55C307.061 412.21 307.512 411.771 307.815 411.233C308.124 410.695 308.278 410.13 308.278 409.536V407.534C308.186 407.645 307.982 407.747 307.666 407.84C307.357 407.926 306.999 408.004 306.591 408.072C306.189 408.133 305.797 408.189 305.413 408.238C305.036 408.282 304.73 408.319 304.495 408.35C303.927 408.424 303.395 408.544 302.901 408.711C302.412 408.872 302.017 409.116 301.714 409.444C301.417 409.765 301.269 410.204 301.269 410.76C301.269 411.521 301.55 412.095 302.113 412.485C302.681 412.868 303.401 413.06 304.273 413.06ZM316.648 395.703V414.691H314.46V395.703H316.648ZM329.074 414.691H326.664L333.636 395.703H336.009L342.982 414.691H340.571L334.897 398.707H334.748L329.074 414.691ZM329.964 407.274H339.681V409.314H329.964V407.274ZM345.643 414.691V400.45H347.756V402.601H347.905C348.164 401.897 348.634 401.325 349.314 400.886C349.994 400.447 350.76 400.228 351.613 400.228C351.774 400.228 351.975 400.231 352.216 400.237C352.457 400.243 352.639 400.253 352.763 400.265V402.49C352.689 402.472 352.519 402.444 352.253 402.407C351.994 402.363 351.718 402.342 351.428 402.342C350.736 402.342 350.118 402.487 349.574 402.777C349.036 403.062 348.609 403.457 348.294 403.964C347.985 404.465 347.831 405.037 347.831 405.679V414.691H345.643ZM362.443 400.45V402.305H355.062V400.45H362.443ZM357.213 397.038H359.402V410.612C359.402 411.23 359.491 411.694 359.67 412.003C359.856 412.306 360.091 412.51 360.375 412.615C360.666 412.713 360.972 412.763 361.293 412.763C361.534 412.763 361.732 412.751 361.886 412.726C362.041 412.695 362.164 412.67 362.257 412.652L362.702 414.617C362.554 414.673 362.347 414.728 362.081 414.784C361.815 414.846 361.478 414.877 361.07 414.877C360.452 414.877 359.847 414.744 359.253 414.478C358.666 414.212 358.178 413.808 357.788 413.264C357.405 412.72 357.213 412.034 357.213 411.205V397.038ZM372.076 400.45V402.305H364.399V400.45H372.076ZM366.698 414.691V398.485C366.698 397.669 366.89 396.989 367.273 396.445C367.656 395.901 368.154 395.493 368.766 395.221C369.378 394.949 370.024 394.813 370.704 394.813C371.241 394.813 371.68 394.856 372.02 394.943C372.36 395.03 372.613 395.11 372.78 395.184L372.15 397.075C372.039 397.038 371.884 396.992 371.686 396.936C371.495 396.881 371.241 396.853 370.926 396.853C370.203 396.853 369.681 397.035 369.359 397.4C369.044 397.765 368.886 398.299 368.886 399.004V414.691H366.698ZM378.925 415.025C378.023 415.025 377.204 414.855 376.468 414.515C375.733 414.169 375.148 413.672 374.716 413.023C374.283 412.367 374.067 411.576 374.067 410.649C374.067 409.833 374.227 409.172 374.549 408.665C374.87 408.152 375.3 407.75 375.838 407.46C376.375 407.169 376.969 406.953 377.618 406.811C378.273 406.662 378.931 406.545 379.593 406.458C380.458 406.347 381.16 406.264 381.697 406.208C382.241 406.146 382.637 406.044 382.884 405.902C383.137 405.76 383.264 405.513 383.264 405.16V405.086C383.264 404.171 383.014 403.46 382.513 402.954C382.019 402.447 381.268 402.193 380.26 402.193C379.216 402.193 378.397 402.422 377.803 402.879C377.21 403.337 376.793 403.825 376.552 404.344L374.475 403.603C374.846 402.737 375.34 402.064 375.958 401.581C376.582 401.093 377.262 400.753 377.998 400.562C378.74 400.364 379.469 400.265 380.186 400.265C380.643 400.265 381.169 400.321 381.762 400.432C382.362 400.537 382.94 400.756 383.496 401.09C384.058 401.424 384.525 401.928 384.896 402.601C385.267 403.275 385.452 404.177 385.452 405.309V414.691H383.264V412.763H383.153C383.005 413.072 382.757 413.403 382.411 413.755C382.065 414.107 381.605 414.407 381.03 414.654C380.455 414.902 379.753 415.025 378.925 415.025ZM379.259 413.06C380.124 413.06 380.854 412.89 381.447 412.55C382.046 412.21 382.498 411.771 382.801 411.233C383.11 410.695 383.264 410.13 383.264 409.536V407.534C383.171 407.645 382.967 407.747 382.652 407.84C382.343 407.926 381.985 408.004 381.577 408.072C381.175 408.133 380.782 408.189 380.399 408.238C380.022 408.282 379.716 408.319 379.481 408.35C378.913 408.424 378.381 408.544 377.887 408.711C377.398 408.872 377.003 409.116 376.7 409.444C376.403 409.765 376.255 410.204 376.255 410.76C376.255 411.521 376.536 412.095 377.099 412.485C377.667 412.868 378.387 413.06 379.259 413.06ZM389.446 414.691V400.45H391.634V414.691H389.446ZM390.559 398.077C390.132 398.077 389.764 397.932 389.455 397.641C389.152 397.351 389.001 397.001 389.001 396.593C389.001 396.185 389.152 395.836 389.455 395.546C389.764 395.255 390.132 395.11 390.559 395.11C390.985 395.11 391.35 395.255 391.653 395.546C391.962 395.836 392.116 396.185 392.116 396.593C392.116 397.001 391.962 397.351 391.653 397.641C391.35 397.932 390.985 398.077 390.559 398.077ZM395.642 414.691V400.45H397.756V402.601H397.904C398.164 401.897 398.633 401.325 399.313 400.886C399.993 400.447 400.76 400.228 401.613 400.228C401.773 400.228 401.974 400.231 402.215 400.237C402.456 400.243 402.639 400.253 402.762 400.265V402.49C402.688 402.472 402.518 402.444 402.252 402.407C401.993 402.363 401.718 402.342 401.427 402.342C400.735 402.342 400.117 402.487 399.573 402.777C399.035 403.062 398.609 403.457 398.293 403.964C397.984 404.465 397.83 405.037 397.83 405.679V414.691H395.642Z" fill="white"/>
</svg>
